<svg width="128" height="128" xmlns="http://www.w3.org/2000/svg">
  <defs>
    <linearGradient id="grad" x1="0%" y1="0%" x2="100%" y2="100%">
      <stop offset="0%" style="stop-color:#667eea;stop-opacity:1" />
      <stop offset="100%" style="stop-color:#764ba2;stop-opacity:1" />
    </linearGradient>
  </defs>
  
  <!-- Background -->
  <rect width="128" height="128" rx="24" fill="url(#grad)"/>
  
  <!-- Phone icon -->
  <path d="M 45 35 Q 40 35 40 40 L 40 88 Q 40 93 45 93 L 83 93 Q 88 93 88 88 L 88 40 Q 88 35 83 35 Z" 
        fill="none" stroke="white" stroke-width="4"/>
  
  <!-- AI brain/circuit pattern -->
  <circle cx="64" cy="55" r="3" fill="white"/>
  <circle cx="54" cy="65" r="3" fill="white"/>
  <circle cx="74" cy="65" r="3" fill="white"/>
  <circle cx="64" cy="75" r="3" fill="white"/>
  
  <line x1="64" y1="55" x2="54" y2="65" stroke="white" stroke-width="2"/>
  <line x1="64" y1="55" x2="74" y2="65" stroke="white" stroke-width="2"/>
  <line x1="54" y1="65" x2="64" y2="75" stroke="white" stroke-width="2"/>
  <line x1="74" y1="65" x2="64" y2="75" stroke="white" stroke-width="2"/>
</svg>
